<svg xmlns="http://www.w3.org/2000/svg" xmlns:xlink="http://www.w3.org/1999/xlink" width="500" zoomAndPan="magnify" viewBox="0 0 375 374.999991" height="500" preserveAspectRatio="xMidYMid meet" version="1.2"><defs><clipPath id="8db905f0fd"><path d="M 35.457031 35.460938 L 353.457031 35.460938 L 353.457031 371.460938 L 35.457031 371.460938 Z M 35.457031 35.460938 "/></clipPath><clipPath id="71a907b7c6"><path d="M 21.542969 3.535156 L 79.304688 3.535156 L 79.304688 356 L 21.542969 356 Z M 21.542969 3.535156 "/></clipPath></defs><g id="a85ff6ebd7"><path style=" stroke:none;fill-rule:nonzero;fill:#000000;fill-opacity:1;" d="M 227.277344 243.742188 C 226.648438 240.5625 224.769531 237.382812 221.589844 234.25 C 226.777344 234.703125 231.082031 233.945312 234.496094 231.957031 C 237.9375 229.96875 240.464844 227.199219 242.109375 223.699219 C 245.09375 217.296875 244.703125 210.984375 240.917969 204.757812 C 237.742188 199.480469 232.636719 195.222656 225.675781 191.980469 C 218.171875 188.476562 211.277344 187.566406 205.007812 189.234375 C 198.734375 190.898438 194.195312 194.726562 191.40625 200.734375 C 189.71875 204.367188 189.332031 208.109375 190.238281 211.914062 C 191.144531 215.742188 193.394531 219.351562 196.984375 222.789062 C 193.050781 222.464844 189.609375 223.050781 186.671875 224.542969 C 183.730469 226.03125 181.546875 228.304688 180.140625 231.308594 C 177.890625 236.171875 178.023438 241.125 180.574219 246.164062 C 183.125 251.199219 188.054688 255.4375 195.339844 258.832031 C 202.691406 262.269531 209.113281 263.332031 214.585938 262.011719 C 220.054688 260.714844 223.925781 257.621094 226.171875 252.757812 C 227.535156 249.945312 227.902344 246.941406 227.277344 243.742188 Z M 212.703125 245.425781 C 211.621094 247.761719 209.890625 249.253906 207.558594 249.902344 C 205.222656 250.550781 202.648438 250.207031 199.816406 248.886719 C 197.09375 247.613281 195.234375 245.902344 194.238281 243.71875 C 193.222656 241.535156 193.265625 239.289062 194.367188 236.953125 C 195.535156 234.464844 197.265625 232.910156 199.601562 232.28125 C 201.9375 231.65625 204.488281 232 207.277344 233.296875 C 210.023438 234.574219 211.902344 236.304688 212.917969 238.464844 C 213.9375 240.605469 213.871094 242.941406 212.703125 245.425781 Z M 211.730469 223.179688 C 208.636719 221.730469 206.496094 219.613281 205.332031 216.824219 C 204.164062 214.03125 204.292969 211.113281 205.71875 208.066406 C 207.339844 204.5625 209.589844 202.359375 212.445312 201.425781 C 215.296875 200.496094 218.238281 200.757812 221.265625 202.164062 C 224.378906 203.613281 226.519531 205.773438 227.6875 208.671875 C 228.855469 211.566406 228.660156 214.726562 227.058594 218.164062 C 225.914062 220.628906 223.96875 222.488281 221.222656 223.761719 C 218.496094 225.058594 215.320312 224.84375 211.730469 223.179688 Z M 211.730469 223.179688 "/><path style=" stroke:none;fill-rule:nonzero;fill:#000000;fill-opacity:1;" d="M 121.09375 276.628906 C 120.53125 276.628906 120.011719 276.496094 119.492188 276.453125 C 136.960938 292.238281 160.03125 301.925781 185.417969 301.925781 C 239.796875 301.925781 283.882812 257.839844 283.882812 203.460938 C 283.882812 149.082031 239.796875 104.996094 185.417969 104.996094 C 131.039062 104.996094 86.953125 149.082031 86.953125 203.460938 C 86.953125 223.179688 92.789062 241.472656 102.757812 256.867188 C 103.425781 247.289062 111.339844 239.675781 121.09375 239.675781 C 131.296875 239.675781 139.558594 247.957031 139.558594 258.140625 C 139.558594 268.347656 131.277344 276.628906 121.09375 276.628906 Z M 206.972656 274.488281 C 178.820312 274.488281 155.988281 251.65625 155.988281 223.503906 C 155.988281 195.351562 178.820312 172.519531 206.972656 172.519531 C 235.125 172.519531 257.957031 195.351562 257.957031 223.503906 C 257.957031 227.113281 257.566406 230.617188 256.855469 234.011719 C 262.539062 222.25 265.828125 209.101562 265.828125 195.15625 C 265.828125 183.199219 263.425781 171.828125 259.191406 161.425781 C 266.261719 173.839844 270.367188 188.152344 270.367188 203.4375 C 270.367188 250.359375 232.335938 288.390625 185.417969 288.390625 C 172.355469 288.390625 160.054688 285.363281 148.984375 280.085938 C 157.65625 282.898438 166.910156 284.453125 176.507812 284.453125 C 192.8125 284.453125 208.074219 280.023438 221.222656 272.367188 C 216.703125 273.730469 211.925781 274.488281 206.972656 274.488281 Z M 206.972656 274.488281 "/><g clip-rule="nonzero" clip-path="url(#8db905f0fd)"><path style=" stroke:none;fill-rule:nonzero;fill:#a6a6a6;fill-opacity:1;" d="M 79.277344 150.3125 C 98.800781 111.417969 138.929688 84.671875 185.417969 84.671875 C 251.015625 84.671875 304.207031 137.859375 304.207031 203.460938 C 304.207031 269.058594 251.015625 322.25 185.417969 322.25 C 138.929688 322.25 98.800781 295.503906 79.277344 256.605469 L 35.601562 279.480469 C 63.339844 334.054688 119.988281 371.460938 185.394531 371.460938 C 278.171875 371.460938 353.394531 296.238281 353.394531 203.460938 C 353.394531 110.683594 278.171875 35.460938 185.394531 35.460938 C 119.988281 35.460938 63.339844 72.867188 35.578125 127.4375 Z M 79.277344 150.3125 "/></g><g clip-rule="nonzero" clip-path="url(#71a907b7c6)"><path style=" stroke:none;fill-rule:nonzero;fill:#a6a6a6;fill-opacity:1;" d="M 21.542969 3.535156 L 79.304688 3.535156 L 79.304688 355.972656 L 21.542969 355.972656 Z M 21.542969 3.535156 "/></g></g></svg>